<?xml version="1.0" encoding="UTF-8"?>
<svg width="212px" height="212px" viewBox="0 0 212 212" version="1.1" xmlns="http://www.w3.org/2000/svg" xmlns:xlink="http://www.w3.org/1999/xlink">
    <!-- Generator: Sketch 52.2 (67145) - http://www.bohemiancoding.com/sketch -->
    <title>fire</title>
    <desc>Created with Sketch.</desc>
    <g id="fire" stroke="none" stroke-width="1" fill="none" fill-rule="evenodd">
        <g id="Group-2" transform="translate(47.000000, 31.000000)">
            <g id="Group">
                <path d="M0.00674037982,89.2154509 C0.00224762742,89.0895743 4.975342e-14,88.9636142 4.97379915e-14,88.8376306 L4.97379915e-14,34.2275362 C4.89703976e-14,27.959656 5.0811208,22.8785352 11.349001,22.8785352 C13.5577977,22.8785352 15.718591,23.5230844 17.5664336,24.7331508 L28.8476658,32.1207066 L49.9919698,4.52967048 C53.8045437,-0.445327213 60.928278,-1.3876579 65.9032757,2.42491598 C66.6942214,3.03105479 67.4018914,3.73872471 68.0080302,4.52967048 L104.94493,52.7283409 C105.131691,52.9720435 105.306227,53.2212706 105.468636,53.4752852 C113.319538,63.5748284 118,76.2982964 118,90.1236475 C118,122.967854 91.5848002,149.593345 59,149.593345 C26.4151998,149.593345 0,122.967854 0,90.1236475 C0,89.8203798 0.00225210593,89.5176422 0.00674037982,89.2154509 Z" id="Combined-Shape" fill="#FF9600"></path>
                <path d="M39.2260161,84.5014728 C39.2969654,84.3906511 39.3729239,84.282626 39.4537719,84.1777483 L55.1505344,63.8155975 C56.7894249,61.6895964 59.8414726,61.2947152 61.9674737,62.9336057 C62.298131,63.1885026 62.5945687,63.4849402 62.8494656,63.8155975 L78.5462281,84.1777483 C78.6281413,84.2840077 78.7046109,84.3927456 78.7756806,84.5036268 C82.1591248,88.7994106 84.1783439,94.2240946 84.1783439,100.121352 C84.1783439,114.055258 72.9056154,125.35092 59,125.35092 C45.0943846,125.35092 33.8216561,114.055258 33.8216561,100.121352 C33.8216561,94.2231088 35.8415503,88.7975972 39.2260161,84.5014728 Z" id="Combined-Shape" fill="#FFC800"></path>
            </g>
        </g>
    </g>
</svg>